<?xml version="1.0" encoding="utf-8"?>
<!-- Generator: Adobe Illustrator 25.3.1, SVG Export Plug-In . SVG Version: 6.00 Build 0)  -->
<svg version="1.1" id="Layer_1" xmlns="http://www.w3.org/2000/svg" xmlns:xlink="http://www.w3.org/1999/xlink" x="0px" y="0px"
	 viewBox="0 0 100 100" style="enable-background:new 0 0 100 100;" xml:space="preserve">
<style type="text/css">
	.st0{fill:#FFFFFF;}
</style>
<g>
	<path class="st0" d="M85,71.2l-18.7-6.9c-0.5-0.2-0.9-0.6-1-1.1l-3.2-24.8l0-0.1c-0.2-0.9-0.5-1.7-1-2.3l28-20.4
		c0.9-0.6,1.1-1.9,0.4-2.8c-0.7-0.9-1.9-1.1-2.8-0.4L57.3,33.8c-0.7-0.1-1.3-0.1-2,0c-2.9,0.4-5,2.5-5.1,5.1c-3.3,0.1-5.2-1.4-6-2.3
		c-1.2-1.3-1.7-2.9-1.5-4.2c0.8-4,0.8-6.9-1.5-9.6l9.3-9.3c0.8-0.8,0.8-2.1,0-2.8s-2-0.8-2.8,0l-10,10c-1.4-0.2-3,0-4.6,0.8
		c-0.6,0.3-1.1,0.6-1.6,1.1c-0.2,0.1-15.6,15.4-19.2,19c-2.7,2.7-2.9,6.8-0.6,10.9c0.2,0.4,0.6,0.8,0.9,1.2L49,88.6
		c1,1,2.4,1.6,3.8,1.6h31.2c1.5,0,3-0.6,4-1.7c1-1.1,1.6-2.6,1.5-4.1C89.4,80.2,89,77,88.4,75C87.9,73.2,86.7,71.8,85,71.2z
		 M60.4,55.9c0,0-0.1,0-0.1,0c-1.5,0-2.4-0.5-3.1-1l2.3-5.8L60.4,55.9z M55.9,37.8c0,0,0.2,0,0.4,0c0.6,0,1.7,0.2,1.9,1.2l0.2,1.9
		l-3,7.7c-0.4-2.7-0.8-5.9-1.2-9l0-0.1C54,38.1,55.6,37.8,55.9,37.8z M34.2,25.3c0.1-0.1,0.3-0.2,0.4-0.3c0.3-0.1,1.2-0.5,2-0.5
		c0.4,0,0.8,0.1,1.1,0.4c1.4,1.4,1.8,2.6,1,6.7c-0.5,2.6,0.4,5.5,2.5,7.7c2.3,2.5,5.7,3.8,9.4,3.6c0.7,4.9,1.4,9.7,1.8,11.6
		c0.1,0.6,0.4,1.1,0.7,1.7c0,0.1,0.1,0.2,0.2,0.3c0,0,0,0,0,0c0.8,1.2,3.1,3.7,7.7,3.4l0.5,3.9l0,0.1c0.3,1.9,1.7,3.5,3.5,4.2
		L83.6,75c0.5,0.2,0.8,0.6,0.9,1c0.2,0.8,0.5,2.1,0.7,4.2h-28L40.7,63.8l-0.1-4c-0.1-3.1-1.3-6.1-3.6-8.3L22.4,36.9
		C27.9,31.5,34.1,25.4,34.2,25.3z M85.2,85.7c-0.3,0.3-0.7,0.5-1.1,0.5H52.8c-0.4,0-0.8-0.2-1.1-0.4L15.3,50.6
		c-0.1-0.1-0.2-0.2-0.2-0.3c-0.7-1.2-2-4.1,0-6c0.9-0.9,2.6-2.6,4.6-4.5l14.6,14.6c1.5,1.5,2.3,3.5,2.4,5.6l0.2,5.6l18.9,18.7h29.9
		c0,0.1,0,0.2,0,0.3C85.6,84.9,85.5,85.3,85.2,85.7z"/>
	<path class="st0" d="M12,17h20c1.1,0,2-0.9,2-2s-0.9-2-2-2H12c-1.1,0-2,0.9-2,2S10.9,17,12,17z"/>
	<path class="st0" d="M34,78h-7c-1.1,0-2,0.9-2,2s0.9,2,2,2h7c1.1,0,2-0.9,2-2S35.1,78,34,78z"/>
	<path class="st0" d="M28,73c0-1.1-0.9-2-2-2H12c-1.1,0-2,0.9-2,2s0.9,2,2,2h14C27.1,75,28,74.1,28,73z"/>
</g>
</svg>
