<?xml version="1.0" encoding="utf-8"?>
<!-- Generator: Adobe Illustrator 25.3.1, SVG Export Plug-In . SVG Version: 6.00 Build 0)  -->
<svg version="1.1" id="Layer_1" xmlns="http://www.w3.org/2000/svg" xmlns:xlink="http://www.w3.org/1999/xlink" x="0px" y="0px"
	 viewBox="0 0 100 100" style="enable-background:new 0 0 100 100;" xml:space="preserve">
<style type="text/css">
	.st0{fill:#FFFFFF;}
</style>
<path class="st0" d="M70.3,28.9c0.9-0.7,1.8-1.7,2.4-3.2c2.5-5.8,10.2-8.4,10.3-8.5l0.4-0.2c2.2-1.4,5.7-4.8,4.5-9
	c-0.2-0.8-0.8-1.4-1.6-1.8c-3.9-1.7-19.4,5.4-28.5,9.9L11.7,23c-1.1,0.2-1.9,1.2-1.7,2.3s1.2,1.9,2.3,1.7L57,20.4l0.4,1.6l0.5,2.2
	c-5.3,1.1-19.3,4.4-26.3,10.2C26.2,39,11.9,41,11.7,41c-1.1,0.2-1.9,1.2-1.7,2.2c0.1,1,1,1.7,2,1.7c0.1,0,0.2,0,0.3,0
	c0.6-0.1,15.6-2.1,22-7.5c0.3-0.2,0.6-0.5,0.9-0.7C30,42.5,26.8,50,26.8,58.3c0,17.5,14.2,31.8,31.8,31.8s31.8-14.2,31.8-31.8
	C90.3,45,82,33.6,70.3,28.9z M82.1,73c-2.5,1.1-15.6,6.4-28.5,1.6c-9.3-3.5-16.6-11.4-21.8-23.5c0.9-3.3,2.4-6.4,4.4-9.1
	c3.7,10.1,9.8,17.2,18,21c5,2.3,10.3,3.1,15.2,3.1c6.9,0,13-1.6,16.5-2.8C85.2,66.8,83.9,70.1,82.1,73z M86.3,58.4
	c0,0.2,0,0.3,0,0.5c-4,1.5-18.3,6-30.5,0.4C48,55.7,42.5,48.7,39.2,38.5c5-4.9,11.8-7.9,19.3-7.9C73.8,30.6,86.3,43,86.3,58.4z
	 M81.5,13.5c-1.6,0.6-9.5,3.8-12.4,10.6c-0.7,1.6-1.6,1.9-1.9,1.9c-1.6,0.4-3.9-0.7-5-1.4l-0.1-0.5l-1.2-4.9c9.3-4.6,20-9,23.3-9.3
	C84,11.7,82.1,13.1,81.5,13.5z M30.8,58.4C30.8,58.3,30.8,58.3,30.8,58.4c5.4,10,12.6,16.7,21.4,20c4.5,1.7,8.9,2.3,13,2.3
	c4.5,0,8.6-0.8,11.9-1.6c-4.9,4.4-11.4,7.1-18.5,7.1C43.2,86.1,30.8,73.7,30.8,58.4z"/>
</svg>
