<?xml version="1.0" encoding="utf-8"?>
<!-- Generator: Adobe Illustrator 25.3.1, SVG Export Plug-In . SVG Version: 6.00 Build 0)  -->
<svg version="1.1" id="Layer_1" xmlns="http://www.w3.org/2000/svg" xmlns:xlink="http://www.w3.org/1999/xlink" x="0px" y="0px"
	 viewBox="0 0 100 100" style="enable-background:new 0 0 100 100;" xml:space="preserve">
<style type="text/css">
	.st0{fill:#FFFFFF;}
</style>
<g>
	<path class="st0" d="M79.4,11.6c-0.4-1-1.6-1.5-2.6-1.1c-1,0.4-1.5,1.6-1.1,2.6c0,0.1,1.7,4,2.6,14.5c-5.5,2.8-12.1-2.4-14.1-4.2
		c-0.2-3.2-2.6-8.9-4.2-12.3c-0.5-1-1.6-1.4-2.7-1c-1,0.5-1.5,1.6-1,2.7c2,4.3,4,9.8,3.9,11c-0.1,0.3-0.2,0.7-0.2,1
		c-0.5,2.3-0.6,2.3-1.7,2.2c-3.1-0.2-5.9,0.9-7.5,2.9c-1.7,2.1-2,5-0.8,8.6c1,3.1,2.4,5.8,3.8,8.3c2,3.6,3.8,6.8,3.5,10.3
		c-0.1,1.3-0.2,2.9-0.4,4.8c-1.3,14-1.8,21-1.2,22.8c0.4,1.3,1.7,3.8,3.8,4.7c0.5,0.2,1.1,0.3,1.7,0.3c0.6,0,1.3-0.2,1.9-0.5
		C66.5,87.7,83,67.4,83,43.8C83,20.2,79.6,11.9,79.4,11.6z M61.3,85.8c-0.1,0.1-0.1,0.1-0.2,0c-0.6-0.2-1.3-1.4-1.5-2.2
		c-0.4-1.8,0.8-14.9,1.3-21.3c0.2-1.9,0.3-3.5,0.4-4.8c0.4-4.8-1.8-8.7-4-12.6c-1.3-2.4-2.7-4.8-3.5-7.5c-0.5-1.5-0.8-3.7,0.2-5
		c0.9-1.1,2.7-1.5,4.1-1.4c0.7,0,1.3,0,1.8-0.1c2.5,3.5,9.6,14.9,7.1,25.6c-1.2,5.1-0.6,8.8,1.6,10.9c1.2,1.1,2.7,1.6,4.1,1.7
		C68.3,78.5,62.7,84.9,61.3,85.8z M74.6,65.1c-0.9,0.1-2.3,0.1-3.2-0.6c-1.1-1-1.3-3.5-0.4-7.1c2.9-12.6-5.2-25.2-7.9-29
		c0.1-0.2,0.2-0.4,0.3-0.6c2.6,2,7,4.6,11.6,4.6c1.2,0,2.5-0.2,3.7-0.6c0.2,3.4,0.3,7.4,0.3,12C79,51.6,77.1,58.9,74.6,65.1z"/>
	<path class="st0" d="M42.6,48.3c0-0.2-0.1-0.3-0.1-0.5c-0.7-5.5-1.8-9.2-2.9-12.7c-0.5-1.5-0.9-3-1.3-4.6c-1.6-6.5,1.2-17.9,1.2-18
		c0.3-1.1-0.4-2.2-1.5-2.4s-2.2,0.4-2.4,1.5c-0.1,0.4-2.3,9.5-1.7,16.8c-4.2,2.4-7.5,1.6-9,0.9c0.1-5.6-2.2-16.3-2.5-17.6
		c-0.2-1.1-1.3-1.8-2.4-1.5c-1.1,0.2-1.8,1.3-1.5,2.4c0.8,3.7,2.8,14.2,2.3,17.7c-0.2,1.2-0.6,2.9-1.2,5c-1.4,5.1-3.5,12.8-3.5,23.5
		c0,9.3,1.2,17.4,3.3,22.7c0.3,0.7,0.5,1.3,0.7,1.9c1.2,3.5,2.3,6.8,9.2,6.8c6.6,0,8-3.5,9.5-7.2c0.2-0.5,0.4-0.9,0.6-1.4
		C41.7,75.7,43,67.2,43,58c0-3.4-0.2-6.4-0.4-8.9C42.6,48.8,42.6,48.5,42.6,48.3z M34.7,32.4c0.3,1.3,0.7,2.5,1.1,3.8
		c1.1,3.7,2.3,7.4,2.8,13c0.1,5.3-3.3,14.1-7.1,18.4c-1.3,1.4-2.3,1.9-2.8,1.9c-0.3,0-0.7-0.2-1.1-0.7c-4-4.2-6-21.2-6-23.9
		c0.1-0.3,0-0.7-0.1-1c0.6-3,1.3-5.6,1.9-7.8c0.3-1.1,0.6-2.1,0.8-3c1.1,0.3,2.4,0.6,4,0.6C30.2,33.9,32.3,33.5,34.7,32.4z
		 M35.7,79.8c-0.2,0.5-0.4,1-0.6,1.5c-1.4,3.5-1.9,4.7-5.8,4.7c-4,0-4.3-0.9-5.4-4.1c-0.2-0.7-0.5-1.3-0.8-2.1
		c-1.7-4.4-2.7-10.8-3-18.4c0.6,2.2,1.3,4.4,2.1,6.2c1.7,3.8,3.9,5.8,6.4,5.8c1.9,0,3.8-1.1,5.7-3.2c1.5-1.7,3.1-4.1,4.5-6.8
		C38.5,70,37.4,75.7,35.7,79.8z"/>
</g>
</svg>
