<?xml version="1.0" encoding="utf-8"?>
<!-- Generator: Adobe Illustrator 25.3.1, SVG Export Plug-In . SVG Version: 6.00 Build 0)  -->
<svg version="1.1" id="Layer_1" xmlns="http://www.w3.org/2000/svg" xmlns:xlink="http://www.w3.org/1999/xlink" x="0px" y="0px"
	 viewBox="0 0 100 100" style="enable-background:new 0 0 100 100;" xml:space="preserve">
<style type="text/css">
	.st0{fill:#FFFFFF;}
</style>
<g>
	<path class="st0" d="M67.7,33.5l2.2-6.5c1.4-4,0.8-8.2-1.7-11.7C65.8,12,62,10,57.8,10H42.2c-4.2,0-8,2-10.5,5.4
		c-2.4,3.4-3.1,7.7-1.7,11.7l2.2,6.5C24,39.3,19,48.8,19,59c0,17.1,13.9,31,31,31s31-13.9,31-31C81,48.8,76.1,39.3,67.7,33.5z
		 M35,17.7c1.7-2.4,4.3-3.7,7.2-3.7h15.5c2.9,0,5.5,1.4,7.2,3.7c1.7,2.4,2.1,5.3,1.2,8l-2.7,7.8c-0.1,0.1-0.1,0.3-0.1,0.4l-0.3,0.8
		c-0.3,0.7-0.9,0.9-1.1,1c-0.2,0-0.9,0.1-1.4-0.5c-0.4-0.4-0.5-1-0.3-1.5l2.3-6.6c0.9-2.6,0.5-5.4-1.1-7.6c-1.6-2.2-4.1-3.5-6.8-3.5
		h-9.1c-2.7,0-5.2,1.3-6.8,3.5s-2,5-1.1,7.6l2.3,6.6c0.2,0.5,0.1,1.1-0.3,1.5c-0.5,0.6-1.2,0.5-1.4,0.5c-0.3,0-0.9-0.2-1.1-1
		l-3.1-8.9C32.9,23,33.3,20.1,35,17.7z M42.4,29l-1.1-3.2c-0.5-1.4-0.3-2.8,0.6-4c0.8-1.2,2.1-1.8,3.5-1.8h9.1
		c1.4,0,2.7,0.7,3.5,1.8c0.8,1.2,1,2.6,0.6,4L57.6,29C52.6,27.7,47.4,27.7,42.4,29z M50,86c-14.9,0-27-12.1-27-27
		c0-8.5,4-16.5,10.9-21.6c0.8,1.1,2,2,3.4,2.2c1.9,0.4,3.9-0.2,5.2-1.7c1.2-1.4,1.7-3.3,1.2-5.1c4.1-1,8.5-1,12.6,0
		c-0.5,1.8,0,3.7,1.2,5.1c1.1,1.2,2.5,1.8,4.1,1.8c0.4,0,0.7,0,1.1-0.1c1.4-0.3,2.6-1.1,3.4-2.2C73,42.5,77,50.4,77,59
		C77,73.9,64.9,86,50,86z"/>
	<path class="st0" d="M61,57c-1.1,0-2,0.9-2,2c0,5-4,9-9,9s-9-4-9-9s4-9,9-9c1.1,0,2-0.9,2-2s-0.9-2-2-2c-7.2,0-13,5.8-13,13
		s5.8,13,13,13s13-5.8,13-13C63,57.9,62.1,57,61,57z"/>
</g>
</svg>
