<?xml version="1.0" encoding="utf-8"?>
<!-- Generator: Adobe Illustrator 25.3.1, SVG Export Plug-In . SVG Version: 6.00 Build 0)  -->
<svg version="1.1" id="Layer_1" xmlns="http://www.w3.org/2000/svg" xmlns:xlink="http://www.w3.org/1999/xlink" x="0px" y="0px"
	 viewBox="0 0 100 100" style="enable-background:new 0 0 100 100;" xml:space="preserve">
<style type="text/css">
	.st0{fill:#FFFFFF;}
</style>
<g>
	<path class="st0" d="M68.2,63.3l-0.9-0.4l9.3-17.6L71.4,31l14.5-8.4l-8.2-11.8c-0.6-0.9-1.9-1.1-2.8-0.5s-1.1,1.9-0.5,2.8l5.8,8.2
		l-2.7,1.6l-4-2.4l-6.8-9.6c-0.6-0.9-1.9-1.1-2.8-0.5c-0.9,0.6-1.1,1.9-0.5,2.8l5.7,8.1l-7.9,4c-0.7,0.3-1.1,1-1.1,1.8
		s0.4,1.5,1.1,1.8l1,0.5l5,2.5c0.1,0.1,0.2,0.1,0.3,0.1L72.3,45l-8.8,16.5L31.6,49.4c-0.3-0.1-0.5-0.2-0.8-0.3L28.9,44H36v-4
		c0-2-1.3-3.9-3.2-4.5l-11.7-3.9c-1.6-0.5-3.4-0.2-4.8,0.8c-1.4,1-2.1,2.7-2,4.4l0.4,7.2h9.9l1.7,4.5c-2.6,0.1-5.2,0.9-7.4,2.4
		c-3.7,2.6-5.9,6.8-5.9,11.3v13.9c0,7.6,6.2,13.7,13.7,13.7h36.6c7.6,0,13.7-6.2,13.7-13.7C77.1,70.5,73.5,65.3,68.2,63.3z M68.6,28
		l-2.1-1l5.4-2.7l1.6,0.9L68.6,28z M18.3,36.5c0-0.5,0.3-0.9,0.5-1c0.1-0.1,0.5-0.3,1.1-0.2l11.7,3.9c0.3,0.1,0.5,0.4,0.5,0.7h-5.8
		c-0.1,0-0.2,0-0.3,0h-7.4L18.3,36.5z M63.4,85.9H26.7c-5.4,0-9.7-4.4-9.7-9.7V62.2c0-3.2,1.5-6.2,4.2-8c1.7-1.2,3.6-1.7,5.5-1.7
		c1.2,0,2.4,0.2,3.5,0.7l36.6,13.9c3.8,1.4,6.3,5.1,6.3,9.1C73.1,81.5,68.7,85.9,63.4,85.9z"/>
	<path class="st0" d="M47.4,77.2h-4.2l-5-7.5c0.5-1,0.9-2.2,0.9-3.4c0-3.9-3.2-7-7-7s-7,3.2-7,7s3.1,7,7,7c1.2,0,2.3-0.3,3.3-0.8
		l3.1,4.7h-0.4c-1.1,0-2,0.9-2,2s0.9,2,2,2h9.5c1.1,0,2-0.9,2-2S48.5,77.2,47.4,77.2z M29,66.3c0-1.7,1.4-3,3-3c1.7,0,3,1.4,3,3
		s-1.4,3-3,3S29,68,29,66.3z"/>
</g>
</svg>
