<?xml version="1.0" encoding="utf-8"?>
<!-- Generator: Adobe Illustrator 25.3.1, SVG Export Plug-In . SVG Version: 6.00 Build 0)  -->
<svg version="1.1" id="Layer_1" xmlns="http://www.w3.org/2000/svg" xmlns:xlink="http://www.w3.org/1999/xlink" x="0px" y="0px"
	 viewBox="0 0 100 100" style="enable-background:new 0 0 100 100;" xml:space="preserve">
<style type="text/css">
	.st0{fill:#FFFFFF;}
</style>
<g>
	<path class="st0" d="M90,49.8c0-20.9-16.2-38-36.7-39.6c-0.2,0-0.4,0-0.6-0.1c-0.3,0-0.6,0-0.8,0c-0.3,0-0.5,0-0.8,0v0
		c-0.3,0-0.5,0-0.8,0c-21.9,0-39.8,17.8-39.8,39.8s17.8,39.8,39.8,39.8c0.3,0,0.6,0,0.9,0c0.2,0,0.3,0,0.4,0v0
		C72.9,88.8,90,71.2,90,49.8z M14.5,49.8C14.5,30,30.5,14,50.2,14c0.5,0,1.1,0,1.6,0c0.2,0,0.3,0,0.4,0c0.2,0,0.4,0,0.6,0.1
		c8.3,0.9,14.8,8,14.8,16.5c0,9.2-7.5,16.6-16.6,16.6v0c-11.4,0.3-20.6,9.6-20.6,21.1c0,5.4,2.1,10.3,5.4,14.1
		C23.3,76.9,14.5,64.3,14.5,49.8z M51.1,85.5c-9.2-0.2-16.7-7.8-16.7-17.1c0-9.4,7.7-17.1,17.1-17.1v0c11.2-0.3,20.1-9.4,20.1-20.6
		c0-4.5-1.4-8.6-3.9-12C78.7,24.8,86,36.4,86,49.8C86,69.2,70.4,85,51.1,85.5z"/>
	<path class="st0" d="M50.2,61.3c-4.2,0-7.5,3.4-7.5,7.6s3.4,7.6,7.5,7.6s7.5-3.4,7.5-7.6S54.4,61.3,50.2,61.3z M50.2,72.4
		c-2,0-3.5-1.6-3.5-3.6s1.6-3.6,3.5-3.6s3.5,1.6,3.5,3.6S52.2,72.4,50.2,72.4z"/>
	<path class="st0" d="M50.2,37.2c4.2,0,7.5-3.4,7.5-7.5s-3.4-7.5-7.5-7.5s-7.5,3.4-7.5,7.5S46.1,37.2,50.2,37.2z M50.2,26.1
		c2,0,3.5,1.6,3.5,3.5s-1.6,3.6-3.5,3.6s-3.5-1.6-3.5-3.5S48.3,26.1,50.2,26.1z"/>
</g>
</svg>
