<?xml version="1.0" encoding="utf-8"?>
<!-- Generator: Adobe Illustrator 25.3.1, SVG Export Plug-In . SVG Version: 6.00 Build 0)  -->
<svg version="1.1" id="Layer_1" xmlns="http://www.w3.org/2000/svg" xmlns:xlink="http://www.w3.org/1999/xlink" x="0px" y="0px"
	 viewBox="0 0 100 100" style="enable-background:new 0 0 100 100;" xml:space="preserve">
<style type="text/css">
	.st0{fill:#FFFFFF;}
</style>
<g>
	<path class="st0" d="M88.8,57.9C88.8,57.9,88.8,57.8,88.8,57.9c0-0.1,0-0.2,0-0.2c0-0.1,0-0.2-0.1-0.3c-0.9-4.3-3.5-9.2-9.5-13.9
		C65.7,33,59.1,30.5,55.8,30.6c-0.1-0.1-0.2-0.2-0.3-0.2l-11.2-6c-1.6-1-3-1.3-4.3-1.2c-0.1-0.2-0.3-0.4-0.5-0.6L23.8,10.7
		c-0.9-0.7-2.1-0.5-2.8,0.4s-0.5,2.1,0.4,2.8l14.5,10.9c-0.7,0.5-1.3,1-1.8,1.5l-5.5,4.8c-0.7,0.6-1.5,1.3-2.2,2.1l-13.6-6.6
		c-1-0.5-2.2-0.1-2.7,0.9S10,29.8,11,30.3L24.7,37c-0.2,1.6,0.4,3.5,2.3,5.7l5.2,7.2L32,50.2l0,0.3c0,0.5-1.1,12.3,11,22.3
		c0.7,0.7,3.1,3,7.4,2.4c-0.1,3.3,1.2,5.4,2.6,6.8c2.9,2.9,7.3,3.8,11.2,3.8c2,0,3.9-0.3,5.3-0.6c7.7-2.1,17.2-10.4,19.2-20.3
		C89.1,62.8,89.2,60.5,88.8,57.9z M30,40.1c-2.2-2.6-1.8-3.3,1.1-6l5.5-4.8c3-2.6,3.8-2.7,5.4-1.6l9,4.9
		c-4.2,2.4-12.2,7.4-16.8,13.6l-4.2-5.9L30,40.1z M45.9,70.2l-0.3-0.3C36,61.9,35.8,53,35.9,51.2c4.2-8.8,19.5-16.4,19.7-16.5
		l0.2-0.1c0.7-0.1,4.5,0,16.6,8.7C60.6,46,54.9,53.7,52.6,58.1c-3.1-4.8-8.1-7.8-11.6-9c-0.2-0.1-0.5-0.1-0.7-0.1
		c-0.8,0-1.6,0.5-1.9,1.3c-0.4,1,0.2,2.2,1.2,2.6C40.3,53,53.9,58.1,51.1,71c-0.1,0-0.3,0-0.4,0.1C47.5,71.9,46,70.3,45.9,70.2z
		 M68.4,81.3c-3.5,0.9-9.8,0.7-12.7-2.2c-1-1-1.5-2.2-1.4-3.8c0.5,0.1,1.1,0.2,1.8,0.2c1.5,0,3.2-0.4,5.2-1.7
		c0.9-0.6,1.2-1.8,0.6-2.8S60,70,59.1,70.6c-1.7,1.1-3.1,1.1-4,0.9c0.6-3.2,0.5-6.1-0.3-8.7c0.1-0.2,0.2-0.3,0.3-0.5
		c0.2-0.6,4.9-13.8,21.7-15.6c4.4,3.4,7,7.1,7.9,11.1c0,0.2,0,0.3,0.1,0.5c-0.1,0.3-0.8,1.8-4.8,4c-1,0.5-1.3,1.8-0.7,2.7
		c0.4,0.6,1,1,1.7,1c0.3,0,0.7-0.1,1-0.3c1.1-0.6,2-1.2,2.8-1.8c0,0,0,0.1,0,0.1C83.1,72.2,75,79.6,68.4,81.3z"/>
	<path class="st0" d="M73.8,34.6l9,7c0.4,0.3,0.8,0.4,1.2,0.4c0.6,0,1.2-0.3,1.6-0.8c0.7-0.9,0.5-2.1-0.3-2.8l-9-7
		c-0.9-0.7-2.1-0.5-2.8,0.4C72.7,32.6,72.9,33.9,73.8,34.6z"/>
	<path class="st0" d="M23.4,42.6c-0.8-0.8-2-0.8-2.8,0s-0.8,2,0,2.8l4,4C25,49.8,25.5,50,26,50s1-0.2,1.4-0.6c0.8-0.8,0.8-2,0-2.8
		L23.4,42.6z"/>
</g>
</svg>
