<?xml version="1.0" encoding="utf-8"?>
<!-- Generator: Adobe Illustrator 25.3.1, SVG Export Plug-In . SVG Version: 6.00 Build 0)  -->
<svg version="1.1" id="Layer_1" xmlns="http://www.w3.org/2000/svg" xmlns:xlink="http://www.w3.org/1999/xlink" x="0px" y="0px"
	 viewBox="0 0 100 100" style="enable-background:new 0 0 100 100;" xml:space="preserve">
<style type="text/css">
	.st0{fill:#FFFFFF;}
</style>
<path class="st0" d="M89.4,86.6L52.8,50.3l2.7-2.7l8.5,1.1l0.2,0c1.3-0.1,2.6-0.6,3.5-1.6l20.8-20.8c2.1-2.1,2.1-5.5,0-7.6L81.8,12
	c-2.1-2.1-5.5-2.1-7.6,0L53.4,32.8c-1,1-1.5,2.2-1.6,3.6l0,0.2l1.1,8l-3,2.9l-3-2.9l1.1-8l0-0.2c0-1.4-0.6-2.6-1.6-3.6L25.8,12
	c-2.1-2.1-5.5-2.1-7.6,0l-6.7,6.7c-2.1,2.1-2.1,5.5,0,7.6l20.8,20.8c0.9,0.9,2.2,1.5,3.5,1.6l0.2,0l8.5-1.1l2.7,2.7L10.5,86.6
	c-0.8,0.8-0.8,2,0,2.8c0.4,0.4,0.9,0.6,1.4,0.6s1-0.2,1.4-0.6L50,53.1l36.6,36.3C87,89.8,87.5,90,88,90s1-0.2,1.4-0.6
	C90.2,88.6,90.2,87.3,89.4,86.6z M55.8,36.4c0-0.3,0.2-0.6,0.4-0.8L77,14.8c0.5-0.5,1.4-0.5,2,0l6.7,6.7c0.5,0.5,0.5,1.4,0,2
	L64.8,44.2c-0.2,0.2-0.5,0.3-0.8,0.4L59.1,44l11.6-11.5c0.8-0.8,0.8-2,0-2.8c-0.8-0.8-2-0.8-2.8,0L56.5,41L55.8,36.4z M35.9,44.6
	c-0.3,0-0.6-0.2-0.8-0.4L14.3,23.5c-0.5-0.5-0.5-1.4,0-2l6.7-6.7c0.3-0.3,0.6-0.4,1-0.4s0.7,0.1,1,0.4l20.8,20.8
	c0.2,0.2,0.3,0.5,0.4,0.8L43.5,41L32,29.7c-0.8-0.8-2-0.8-2.8,0s-0.8,2,0,2.8L40.8,44L35.9,44.6z"/>
</svg>
