<?xml version="1.0" encoding="utf-8"?>
<!-- Generator: Adobe Illustrator 25.3.1, SVG Export Plug-In . SVG Version: 6.00 Build 0)  -->
<svg version="1.1" id="Layer_1" xmlns="http://www.w3.org/2000/svg" xmlns:xlink="http://www.w3.org/1999/xlink" x="0px" y="0px"
	 viewBox="0 0 100 100" style="enable-background:new 0 0 100 100;" xml:space="preserve">
<style type="text/css">
	.st0{fill:#FFFFFF;}
</style>
<g>
	<path class="st0" d="M61,73c0,0-3.6,2.7-9.1,2.7c-4.8,0-6.2-2.3-6.3-2.5c-0.5-1-1.7-1.3-2.7-0.8c-1,0.5-1.4,1.7-0.9,2.7
		c0.1,0.2,2.4,4.6,9.9,4.6c6.9,0,11.3-3.4,11.5-3.5c0.9-0.7,1-1.9,0.3-2.8C63.1,72.5,61.9,72.3,61,73z"/>
	<path class="st0" d="M74.9,52.8c-0.3,0.1-6.3,1.3-10.3,6.2c-4.1-4.1-8.1-4.7-10.9-4.5c-2.2,0.2-4.2,1-5.9,2
		c-2-11,1.5-17.2,2.8-19.1c3,3.8,7.7,6.3,12.9,6.3c9.1,0,16.5-7.4,16.5-16.5s-7.4-16.5-16.5-16.5c-7.3,0-13.4,4.7-15.6,11.3
		c0,0-0.1,0.1-0.1,0.1c-0.3,0.3-6.8,6.8-10,10.4c-3,3.4-12.2,13.8-14.7,29.5c-1.6,9.9-2.4,11.4-2.7,11.9c-0.4,0.7-0.5,1.1-0.5,2.2
		c0,3.7,1.3,6.1,7.7,7.8c2.7,0.7,5.1,1.6,7.4,2.5c4.8,1.8,9.5,3.6,16.2,3.6c5.4,0,12.1-1.1,21.3-4.3c1-0.4,1.6-1.5,1.2-2.5
		s-1.5-1.6-2.5-1.2c-19.2,6.6-26.4,3.9-34.8,0.8c-2.4-0.9-4.9-1.8-7.7-2.6c-4.8-1.3-4.8-2.4-4.8-4c0-0.1,0-0.2,0-0.3l0-0.1
		c0.5-0.9,1.4-2.7,3.1-13.2C29.3,48,37.9,38.3,40.8,35.1c1.6-1.8,4.2-4.5,6.3-6.7c0.1,1.9,0.6,3.7,1.3,5.3c-0.1,0.1-0.2,0.2-0.3,0.3
		c-0.3,0.3-7.6,8.7-3.8,25.3c-0.3,0.4-0.6,0.7-0.8,1.1c-1.3,2.1-4.5,3.6-5.6,4c-1,0.4-1.6,1.5-1.2,2.6c0.3,0.8,1.1,1.3,1.9,1.3
		c0.2,0,0.5,0,0.7-0.1c0.2-0.1,5.3-1.9,7.6-5.7c0.8-1.2,3.5-3.8,7.1-4c3-0.2,5.8,1.2,8.5,4.1c-0.5,1.1-0.8,2.3-1,3.7
		c-0.2,1.1,0.6,2.1,1.7,2.3c0.1,0,0.2,0,0.3,0c1,0,1.8-0.7,2-1.7c1.3-8.3,9.9-10.1,10.3-10.2c1.1-0.2,1.8-1.3,1.6-2.3
		C77,53.3,76,52.6,74.9,52.8z M63.5,14.7c6.9,0,12.5,5.6,12.5,12.5s-5.6,12.5-12.5,12.5S51,34,51,27.2S56.6,14.7,63.5,14.7z"/>
	<path class="st0" d="M63.5,34c3.8,0,6.9-3.1,6.9-6.9s-3.1-6.9-6.9-6.9s-6.9,3.1-6.9,6.9S59.7,34,63.5,34z M63.5,24.3
		c1.6,0,2.9,1.3,2.9,2.9S65.1,30,63.5,30s-2.9-1.3-2.9-2.9S61.9,24.3,63.5,24.3z"/>
</g>
</svg>
