<svg xmlns="http://www.w3.org/2000/svg" width="23.446" height="40.423" viewBox="0 0 23.446 40.423">
  <g id="noun_boxing_3995966" transform="translate(-3.911 -6.331)">
    <path id="Trazado_292" data-name="Trazado 292" d="M148.882,31.8h-22.4a.526.526,0,0,0-.525.525v1.883a.526.526,0,0,0,.525.525h9.833l-5.079,9.206c0,.008,0,.016-.008.024a4.969,4.969,0,0,0-1.243,3.269V67.21A5.02,5.02,0,0,0,135,72.224h5.36a5.02,5.02,0,0,0,5.014-5.014V47.233a4.975,4.975,0,0,0-1.3-3.335.506.506,0,0,0-.032-.1l-5-9.061h9.833a.526.526,0,0,0,.526-.525V32.326A.526.526,0,0,0,148.882,31.8ZM137.159,35.39v6.83H135a4.969,4.969,0,0,0-1.807.35Zm7.168,31.82a4.011,4.011,0,0,1-4.146,3.963c.01.034-1.932-.056-1.971-.06a6.118,6.118,0,0,0-1.051,0c-.019.05-1.957.036-1.971.06a4.011,4.011,0,0,1-4.148-3.963V65.865h13.287Zm0-1.346H131.041V58.806h13.287v7.058Zm0-8.109H131.041V55.626h13.287v2.129Zm0-10.522v7.342H131.041V47.233A3.968,3.968,0,0,1,135,43.271h5.36A3.967,3.967,0,0,1,144.327,47.233Zm-2.156-4.664a4.967,4.967,0,0,0-1.807-.35H138.21V35.39Zm6.186-8.886H127.012v-.832h21.345Z" transform="translate(-122.051 -25.47)" fill="#fff"/>
  </g>
</svg>
