<?xml version="1.0" encoding="utf-8"?>
<!-- Generator: Adobe Illustrator 25.0.1, SVG Export Plug-In . SVG Version: 6.00 Build 0)  -->
<svg version="1.1" id="Layer_1" xmlns="http://www.w3.org/2000/svg" xmlns:xlink="http://www.w3.org/1999/xlink" x="0px" y="0px"
	 viewBox="0 0 1920 1080" style="enable-background:new 0 0 1920 1080;" xml:space="preserve">
<style type="text/css">
	.st0{fill:#FFFFFF;}
	.st1{fill:url(#SVGID_1_);}
	.st2{fill:url(#SVGID_2_);}
</style>
<g>
	<g>
		<g>
			<path class="st0" d="M669.88,658.22c-3.18,7.17-7.96,18.31-9.16,20.7c-1.99,3.58-6.37,7.56-15.53,7.56h-63.69v-270.7
				c0.4-4.38,3.98-7.96,8.76-7.96h74.44l-9.55,20.7c-1.59,3.58-5.97,7.96-15.13,7.96h-23.09c-3.98,0-6.77,2.79-6.77,6.77v82.8h42.99
				c-3.18,7.17-7.96,18.71-9.16,21.1c-1.99,3.58-5.97,7.56-15.13,7.56h-11.94c-3.58,0-6.77,3.18-6.77,6.77v96.73H669.88z"/>
		</g>
		<g>
			<path class="st0" d="M898.39,653.84c0,19.11-15.52,33.44-34.23,33.84v0.4h-21.89c-19.51,0-35.43-14.73-35.43-34.24V415.78
				c0.4-4.38,3.98-7.96,8.36-7.96h20.31v240.84c0,8.36,6.37,15.13,14.73,15.13h4.38c8.36,0,15.13-6.77,15.13-15.13V407.82h28.66
				V653.84z"/>
		</g>
		<g>
			<path class="st0" d="M1124.11,686.48c-15.53,0-17.91-12.34-19.11-17.91l-30.65-137.74v155.65h-28.66V407.82h13.14
				c15.92,0,18.71,7.56,20.3,15.52l29.46,144.91V407.82h28.66v278.66H1124.11z"/>
		</g>
		<g>
			<path class="st0" d="M1341.87,405.04c19.11,0.8,34.63,16.32,34.63,35.43v213.77c-0.4,19.11-15.53,34.24-34.63,35.04h-21.89
				c-19.51,0-35.43-15.93-35.83-35.04V440.47c0-19.51,15.92-35.43,35.83-35.43H1341.87z M1332.32,664.19
				c8.36,0,15.13-6.76,15.13-15.52V445.64c0-8.76-6.77-15.52-15.13-15.52h-4.38c-8.36,0.4-15.13,7.17-15.13,15.52v203.03
				c0,8.36,6.77,15.13,15.13,15.52H1332.32z"/>
		</g>
		<g>
			<path class="st0" d="M1552.07,407.82c8.36,0,11.54,6.37,11.54,11.14v267.52h-20.3c-6.77,0-7.96-3.98-8.36-5.97V407.82H1552.07z"
				/>
		</g>
		<g>
			<path class="st0" d="M1818,686.48h-31.44l-25.09-191.88l-25.08,191.88h-31.45l42.2-278.66h15.53c11.94,0,13.93,7.56,15.13,15.13
				L1818,686.48z"/>
		</g>
	</g>
	<g>
		<g>
			
				<linearGradient id="SVGID_1_" gradientUnits="userSpaceOnUse" x1="1856.0353" y1="700.753" x2="2118.6919" y2="549.1081" gradientTransform="matrix(-1 0 0 1 2313.3962 0)">
				<stop  offset="0" style="stop-color:#4A25AA"/>
				<stop  offset="1" style="stop-color:#E10098"/>
			</linearGradient>
			<polygon class="st1" points="457.36,700.75 296.8,700.75 377.08,561.7 			"/>
			
				<linearGradient id="SVGID_2_" gradientUnits="userSpaceOnUse" x1="1856.0353" y1="700.753" x2="2118.6919" y2="549.1081" gradientTransform="matrix(-1 0 0 1 2313.3962 0)">
				<stop  offset="0" style="stop-color:#4A25AA"/>
				<stop  offset="1" style="stop-color:#E10098"/>
			</linearGradient>
			<polygon class="st2" points="282.26,397.46 360.5,532.98 263.63,700.75 107.16,700.75 			"/>
		</g>
	</g>
</g>
</svg>
