<svg xmlns="http://www.w3.org/2000/svg" width="14.813" height="25.54" viewBox="0 0 14.813 25.54">
  <g id="noun_boxing_3995966" transform="translate(116.979 -31.801)">
    <path id="Trazado_292" data-name="Trazado 292" d="M140.443,31.8h-14.15a.332.332,0,0,0-.332.332v1.19a.332.332,0,0,0,.332.332h6.213L129.3,39.471s0,.01,0,.015a3.14,3.14,0,0,0-.786,2.065V54.173a3.171,3.171,0,0,0,3.168,3.168h3.386a3.171,3.171,0,0,0,3.168-3.168V41.551a3.143,3.143,0,0,0-.82-2.107.319.319,0,0,0-.02-.064l-3.158-5.725h6.213a.332.332,0,0,0,.332-.332v-1.19A.332.332,0,0,0,140.443,31.8Zm-7.407,2.267v4.315h-1.361a3.139,3.139,0,0,0-1.142.221Zm4.529,20.1a2.534,2.534,0,0,1-2.62,2.5c.007.021-1.221-.036-1.245-.038a3.866,3.866,0,0,0-.664,0c-.012.032-1.237.022-1.245.038a2.534,2.534,0,0,1-2.62-2.5v-.85h8.395Zm0-.85h-8.395v-4.46h8.395v4.46Zm0-5.124h-8.395V46.854h8.395V48.2Zm0-6.648V46.19h-8.395V41.551a2.507,2.507,0,0,1,2.5-2.5h3.386A2.506,2.506,0,0,1,137.565,41.551ZM136.2,38.6a3.138,3.138,0,0,0-1.142-.221H133.7V34.068Zm3.908-5.614H126.625v-.526h13.486Z" transform="translate(-242.941 0)" fill="#fff"/>
  </g>
</svg>
