<svg xmlns="http://www.w3.org/2000/svg" width="20.8" height="21.688" viewBox="0 0 20.8 21.688">
  <path id="Unión_65" data-name="Unión 65" d="M-1606.5-4004.11a.5.5,0,0,1-.5-.5.5.5,0,0,1,.5-.5h2.8a.5.5,0,0,1,.5.5.5.5,0,0,1-.5.5Zm-17,0a.5.5,0,0,1-.5-.5.5.5,0,0,1,.5-.5h2.8a.5.5,0,0,1,.5.5.5.5,0,0,1-.5.5Zm10.157-4.525-.952.167-6.37,1.119h-.042a2.74,2.74,0,0,1-1.844-.717,2.652,2.652,0,0,1-.686-1.965,2.678,2.678,0,0,1,1.292-2.487,3.045,3.045,0,0,1,1.279-.392l.953.014-1.642-5.37a.5.5,0,0,1-.021-.115h-1.413c-.437.031-.65-.552-.635-.828s.251-.727.635-.722l4.682.553a.5.5,0,0,1,.474.525.5.5,0,0,1-.526.473h-2.185l1.641,5.369a.5.5,0,0,1,.022.131l4.977.073a5.022,5.022,0,0,1,3.35-3.116.5.5,0,0,1-.089-.2l-1.3-6.674a.5.5,0,0,1,.267-.543.5.5,0,0,1,.131-.068l3.309-1.139.824-1.054a.5.5,0,0,1,.7-.087.5.5,0,0,1,.087.7l-.835,1.067a.5.5,0,0,1-.1.1.5.5,0,0,1-.246.185l-3.079,1.06,1.218,6.265a.5.5,0,0,1-.009.229q.232-.022.47-.022a5.006,5.006,0,0,1,5,5,5.005,5.005,0,0,1-5,5A5,5,0,0,1-1613.343-4008.635Zm4.343,1.524a4,4,0,0,0,4-4,4,4,0,0,0-4-4,4.007,4.007,0,0,0-3.629,2.317l4.3.063c.015,0,1.47.113,1.548,1.4s-1.4,1.784-1.411,1.789l-4.09.717A4,4,0,0,0-1609-4007.111Zm-12.8-4.3a1.9,1.9,0,0,0-.491,1.428,1.7,1.7,0,0,0,1.887,1.812,2.669,2.669,0,0,0,.426-.032l5.728-1.017.584-.094a4.972,4.972,0,0,1-.332-1.792,5.017,5.017,0,0,1,.075-.863l-6.053-.066s-.033,0-.091,0A2.545,2.545,0,0,0-1621.8-4011.413Zm8.8.3a3.976,3.976,0,0,0,.347,1.628l3.793-.614c.058-.005,1.4-.134,1.368-1.072-.02-.67-.745-.771-1.174-.771a2.6,2.6,0,0,0-.323.019l-3.919-.042A4,4,0,0,0-1613-4011.11Z" transform="translate(1624 4025.798)" fill="#fff"/>
</svg>
