<svg xmlns="http://www.w3.org/2000/svg" width="16.628" height="20.99" viewBox="0 0 16.628 20.99">
  <g id="noun_grip_strength_324458" data-name="noun_grip strength_324458" transform="translate(-0.004 -0.01)">
    <g id="Grupo_167" data-name="Grupo 167" transform="translate(0.004 0.01)">
      <path id="Trazado_302" data-name="Trazado 302" d="M16.6,18.9,13.99,8.358a1.546,1.546,0,0,0-1.509-1.235,1.524,1.524,0,0,0-.31.032l-.2.043-.964-2.569a3.157,3.157,0,0,0,.334-1.416,3.2,3.2,0,0,0-6.4,0,3.157,3.157,0,0,0,.334,1.416L4.323,7.152a1.229,1.229,0,0,0-.256-.028A1.54,1.54,0,0,0,2.561,8.347L.035,18.919a1.541,1.541,0,0,0,1.2,1.815l1.164.235a1.524,1.524,0,0,0,.31.032,1.54,1.54,0,0,0,1.505-1.224L6.742,9.2a1.543,1.543,0,0,0-1.2-1.818l-.505-.1L5.76,5.344l.032.032c.057.064.117.121.181.181a.636.636,0,0,1,.05.046c.068.06.139.117.21.171a.378.378,0,0,1,.039.032,2.91,2.91,0,0,0,.246.16l.025.014c.093.053.185.1.281.146,0,0,.007,0,.011,0a3.151,3.151,0,0,0,.626.206h0a2.81,2.81,0,0,0,.31.05c.007,0,.018,0,.025,0,.11.011.224.018.338.018s.228-.007.338-.018c.007,0,.018,0,.025,0a3.112,3.112,0,0,0,.31-.05h0a3.151,3.151,0,0,0,.626-.206.012.012,0,0,0,.007,0,2.624,2.624,0,0,0,.281-.146l.025-.014A2.91,2.91,0,0,0,10,5.806a.378.378,0,0,0,.039-.032c.071-.053.142-.11.21-.171a.636.636,0,0,0,.05-.046c.064-.057.121-.117.181-.181l.032-.032.747,1.989L11,7.386A1.542,1.542,0,0,0,9.8,9.219l2.608,10.543A1.559,1.559,0,0,0,13.926,21a1.524,1.524,0,0,0,.31-.032l1.164-.235A1.537,1.537,0,0,0,16.6,18.9ZM2.365,12.219l2.729.818-.356,1.491-2.708-.9Zm1.156,7.4a.833.833,0,0,1-.979.648L1.38,20.036a.827.827,0,0,1-.651-.964l1.135-4.754,2.708.9ZM6.048,9.052,5.262,12.34l-2.729-.818L3.255,8.5a.834.834,0,0,1,.811-.662.89.89,0,0,1,.167.018L5.4,8.087A.828.828,0,0,1,6.048,9.052ZM8.141.718a2.492,2.492,0,0,1,2.2,3.669l-.021.039c-.007.014-.018.028-.025.043a1.922,1.922,0,0,1-.164.242c-.007.011-.014.018-.021.028a2.374,2.374,0,0,1-.445.441c-.007,0-.014.011-.021.014a2.387,2.387,0,0,1-.253.167s0,0-.007,0a2.612,2.612,0,0,1-.573.242.262.262,0,0,0-.05.014c-.082.021-.164.036-.246.05l-.068.011a2.873,2.873,0,0,1-.3.018,2.161,2.161,0,0,1-.3-.021l-.068-.011c-.082-.014-.164-.028-.246-.05a.262.262,0,0,1-.05-.014A2.389,2.389,0,0,1,6.9,5.362s0,0-.007,0a2.387,2.387,0,0,1-.253-.167c-.007,0-.014-.011-.021-.014a2.608,2.608,0,0,1-.445-.441c-.007-.011-.014-.018-.021-.028a2.627,2.627,0,0,1-.164-.242A2.484,2.484,0,0,1,8.141.718Zm6.416,12.888-2.708.9-.367-1.484,2.726-.818ZM11.151,8.087l1.164-.238a.86.86,0,0,1,.167-.018.839.839,0,0,1,.815.68l.744,3-2.726.818-.808-3.267A.823.823,0,0,1,11.151,8.087ZM15.784,19.68a.829.829,0,0,1-.527.356l-1.164.238a.837.837,0,0,1-.979-.662l-1.089-4.405,2.708-.9,1.178,4.757A.867.867,0,0,1,15.784,19.68Z" transform="translate(-0.004 -0.01)" fill="#fff"/>
      <path id="Trazado_303" data-name="Trazado 303" d="M19.519,7.558A1.779,1.779,0,1,0,17.74,5.779,1.78,1.78,0,0,0,19.519,7.558Zm0-2.847a1.067,1.067,0,1,1-1.067,1.067A1.071,1.071,0,0,1,19.519,4.712Z" transform="translate(-11.429 -2.58)" fill="#fff"/>
    </g>
  </g>
</svg>
