<svg xmlns="http://www.w3.org/2000/svg" width="20.092" height="20.092" viewBox="0 0 20.092 20.092">
  <g id="noun_Pilates_1657233" transform="translate(5.624 -10.453)">
    <path id="Trazado_301" data-name="Trazado 301" d="M6.065,20.314a.842.842,0,0,0,.841-.841v-1.06h.355a.842.842,0,0,0,.841-.841V16.337a.842.842,0,0,0-.841-.841H5.4V4.818h1.86A.842.842,0,0,0,8.1,3.977V2.742A.842.842,0,0,0,7.261,1.9H6.906V.841A.842.842,0,0,0,6.065,0H2.036A.842.842,0,0,0,1.2.841V1.9H.841A.841.841,0,0,0,0,2.742V3.977a.842.842,0,0,0,.841.841H2.7V15.5H.841A.841.841,0,0,0,0,16.337v1.235a.842.842,0,0,0,.841.841H1.2v1.06a.842.842,0,0,0,.841.841h4.03ZM1.7.842A.333.333,0,0,1,2.036.508h4.03A.334.334,0,0,1,6.4.842V1.9H1.7ZM.508,3.977V2.742a.333.333,0,0,1,.333-.333h6.42a.333.333,0,0,1,.333.333V3.977a.333.333,0,0,1-.333.333H.841A.334.334,0,0,1,.508,3.977Zm2.7.841H4.892V15.5H3.209V4.818ZM.508,17.571V16.337A.333.333,0,0,1,.841,16h6.42a.333.333,0,0,1,.333.333v1.235a.333.333,0,0,1-.333.333H.841A.333.333,0,0,1,.508,17.571Zm1.2,1.9v-1.06H6.4v1.06a.333.333,0,0,1-.333.333H2.036A.334.334,0,0,1,1.7,19.472Z" transform="translate(8.74 10.453) rotate(45)" fill="#fff"/>
  </g>
</svg>
