<svg xmlns="http://www.w3.org/2000/svg" width="36.53" height="17" viewBox="0 0 36.53 17">
  <g id="Grupo_2782" data-name="Grupo 2782" transform="translate(-105.97 -174)">
    <g id="Trazado_3489" data-name="Trazado 3489" transform="matrix(0.883, -0.469, 0.469, 0.883, 122.69, 187.227)" fill="none" stroke-linejoin="round">
      <path d="M.437,0l9.614.882a.439.439,0,0,1,.437.441V2.2a.439.439,0,0,1-.437.441L.437,1.763A.439.439,0,0,1,0,1.322V.441A.439.439,0,0,1,.437,0Z" stroke="none"/>
      <path d="M 0.4370183944702148 -4.291534423828125e-06 C 0.1956586837768555 -4.291534423828125e-06 -1.9073486328125e-06 0.1973357200622559 -1.9073486328125e-06 0.4407556056976318 L -1.9073486328125e-06 1.322265625 C -1.9073486328125e-06 1.565685629844666 0.1956586837768555 1.763025641441345 0.4370183944702148 1.763025641441345 L 10.05130863189697 2.644535541534424 C 10.29265785217285 2.644535541534424 10.48831844329834 2.447195529937744 10.48831844329834 2.203775644302368 L 10.48831844329834 1.322265625 C 10.48831844329834 1.078845620155334 10.29265785217285 0.8815056085586548 10.05130863189697 0.8815056085586548 L 0.4370183944702148 -4.291534423828125e-06 M 0.4370183944702148 -1.000004291534424 C 0.4674978256225586 -1.000004291534424 0.4979686737060547 -0.9986143112182617 0.5283184051513672 -0.9958243370056152 L 10.10992240905762 -0.1173112392425537 C 10.87521934509277 -0.08637142181396484 11.48831844329834 0.5475120544433594 11.48831844329834 1.322265625 L 11.48831844329834 2.203775644302368 C 11.48831844329834 2.998215675354004 10.84367847442627 3.644535541534424 10.05130863189697 3.644535541534424 C 10.02082824707031 3.644535541534424 9.990358352661133 3.643145561218262 9.96000862121582 3.640355587005615 L 0.3784046173095703 2.761842489242554 C -0.38690185546875 2.730902671813965 -1.000001907348633 2.097019195556641 -1.000001907348633 1.322265625 L -1.000001907348633 0.4407556056976318 C -1.000001907348633 -0.3536844253540039 -0.3553619384765625 -1.000004291534424 0.4370183944702148 -1.000004291534424 Z" stroke="none" fill="#fff"/>
    </g>
    <g id="Elipse_181" data-name="Elipse 181" transform="translate(133 177)" fill="none" stroke="#fff" stroke-width="1">
      <circle cx="4.5" cy="4.5" r="4.5" stroke="none"/>
      <circle cx="4.5" cy="4.5" r="4" fill="none"/>
    </g>
    <g id="Elipse_182" data-name="Elipse 182" transform="translate(135 179)" fill="none" stroke="#fff" stroke-width="1">
      <circle cx="2.5" cy="2.5" r="2.5" stroke="none"/>
      <circle cx="2.5" cy="2.5" r="2" fill="none"/>
    </g>
    <line id="Línea_4" data-name="Línea 4" x1="16" y1="1" transform="translate(106.5 187.5)" fill="none" stroke="#fff" stroke-linecap="round" stroke-width="1"/>
    <line id="Línea_5" data-name="Línea 5" x2="7" transform="translate(107.5 190.5)" fill="none" stroke="#fff" stroke-linecap="round" stroke-width="1"/>
    <line id="Línea_6" data-name="Línea 6" x2="7" transform="translate(135 190.5)" fill="none" stroke="#fff" stroke-linecap="round" stroke-width="1"/>
    <line id="Línea_7" data-name="Línea 7" x2="2" y2="5.803" transform="translate(130.5 176.5)" fill="none" stroke="#fff" stroke-linecap="round" stroke-width="1"/>
    <rect id="Rectángulo_1761" data-name="Rectángulo 1761" width="2" height="5" rx="1" transform="translate(129 174)" fill="#fff"/>
    <path id="Trazado_3490" data-name="Trazado 3490" d="M.6-.255,5.3.052a.5.5,0,0,1,0,1L.678,1.295C.243,1.348,0,.776,0,.5S.212-.238.6-.255Z" transform="matrix(0.999, 0.052, -0.052, 0.999, 108.603, 186.401)" fill="#fff"/>
  </g>
</svg>
