<svg xmlns="http://www.w3.org/2000/svg" width="19.517" height="17.8" viewBox="0 0 19.517 17.8">
  <g id="noun_treadmill_895801" transform="translate(-16.1 -19.592)">
    <path id="Trazado_293" data-name="Trazado 293" d="M69.518,63.736a2.418,2.418,0,1,1,2.418-2.418A2.414,2.414,0,0,1,69.518,63.736Zm0-4a1.554,1.554,0,1,0,1.554,1.554A1.548,1.548,0,0,0,69.518,59.735Z" transform="translate(-36.319 -28.182)" fill="#fff"/>
    <path id="Trazado_294" data-name="Trazado 294" d="M18.23,65.16a2.13,2.13,0,1,1,2.13-2.13A2.125,2.125,0,0,1,18.23,65.16Zm0-3.4A1.267,1.267,0,1,0,19.5,63.03,1.259,1.259,0,0,0,18.23,61.764Z" transform="translate(0 -29.606)" fill="#fff"/>
    <path id="Trazado_295" data-name="Trazado 295" d="M68,74.2" transform="translate(-36.96 -38.42)" fill="none" stroke="#000" stroke-miterlimit="10" stroke-width="3"/>
    <path id="Trazado_296" data-name="Trazado 296" d="M68,74.2" transform="translate(-36.96 -38.42)" fill="none" stroke="#000" stroke-miterlimit="10" stroke-width="3"/>
    <rect id="Rectángulo_1539" data-name="Rectángulo 1539" width="14.969" height="0.864" transform="translate(18.259 34.691)" fill="#fff"/>
    <path id="Trazado_297" data-name="Trazado 297" d="M23.458,37.409l-.058-.864L37.88,35.8l-2.1-8.895.835-.2,2.3,9.9Z" transform="translate(-5.199 -5.251)" fill="#fff"/>
    <path id="Trazado_298" data-name="Trazado 298" d="M61.567,24.151a.37.37,0,0,1-.288-.115.417.417,0,0,1,0-.6l2.936-3.051a.427.427,0,1,1,.6.6l-2.994,3.051A.313.313,0,0,1,61.567,24.151Z" transform="translate(-32.082 -0.658)" fill="#fff"/>
    <rect id="Rectángulo_1540" data-name="Rectángulo 1540" width="4.8" height="1" rx="0.5" transform="translate(18 36.392)" fill="#fff"/>
    <rect id="Rectángulo_1541" data-name="Rectángulo 1541" width="4.8" height="1" rx="0.5" transform="translate(28 36.392)" fill="#fff"/>
  </g>
</svg>
