<svg xmlns="http://www.w3.org/2000/svg" width="30.667" height="23" viewBox="0 0 30.667 23">
  <g id="Icon_Yoga" data-name="Icon / Yoga" transform="translate(0 -16)">
    <path id="Trazado_284" data-name="Trazado 284" d="M30.506,34.966a13.287,13.287,0,0,0-7.919-3.156h-.1a10.639,10.639,0,0,0-4.622,1.181,13.684,13.684,0,0,0,2.018-6.8c0-5.36-4.026-9.855-4.2-10.044a.495.495,0,0,0-.709,0c-.171.189-4.2,4.684-4.2,10.044a13.684,13.684,0,0,0,2.017,6.8,10.64,10.64,0,0,0-4.622-1.181h-.1A13.29,13.29,0,0,0,.161,34.966a.479.479,0,0,0-.008.709A13.21,13.21,0,0,0,8.094,39h.1a12.053,12.053,0,0,0,7.142-2.685A12.046,12.046,0,0,0,22.476,39h.1a13.21,13.21,0,0,0,7.941-3.324.479.479,0,0,0-.008-.709ZM8.1,38.041a12.075,12.075,0,0,1-6.868-2.708,12.161,12.161,0,0,1,6.846-2.564h.085a11.222,11.222,0,0,1,6.676,2.706A11.3,11.3,0,0,1,8.1,38.041Zm7.23-3.12c-.96-1.14-3.594-4.639-3.594-8.727s2.624-7.756,3.594-8.974c.97,1.216,3.593,4.883,3.593,8.974S16.293,33.782,15.333,34.921Zm7.23,3.12a11.3,11.3,0,0,1-6.739-2.565A11.222,11.222,0,0,1,22.5,32.769h.085a12.163,12.163,0,0,1,6.847,2.564A12.044,12.044,0,0,1,22.563,38.041Z" fill="#fff"/>
    <path id="Trazado_285" data-name="Trazado 285" d="M12.631,61.668c.344-.1.7-.183,1.065-.25A13.488,13.488,0,0,1,11.11,57.08a11.354,11.354,0,0,1,6.389.786q-.058-.534-.068-1.086a12.627,12.627,0,0,0-7.064-.538.479.479,0,0,0-.35.6A14.386,14.386,0,0,0,12.631,61.668Z" transform="translate(-7.604 -30.392)" fill="#fff"/>
    <path id="Trazado_286" data-name="Trazado 286" d="M93.087,57.08a13.47,13.47,0,0,1-2.6,4.355c.365.069.72.154,1.065.252a14.377,14.377,0,0,0,2.629-4.848.479.479,0,0,0-.35-.6,12.625,12.625,0,0,0-7.064.538q-.009.551-.068,1.086A11.353,11.353,0,0,1,93.087,57.08Z" transform="translate(-65.926 -30.392)" fill="#fff"/>
    <path id="Trazado_287" data-name="Trazado 287" d="M57.917,52a1.917,1.917,0,1,0,1.917,1.917A1.917,1.917,0,0,0,57.917,52Zm0,2.875a.958.958,0,1,1,.958-.958A.958.958,0,0,1,57.917,54.875Z" transform="translate(-42.583 -27.375)" fill="#fff"/>
  </g>
</svg>
